v -0.382511 -0.923791 0.000489
v -0.653151 -0.706888 -0.270151
v -0.353200 -0.923791 -0.146067
v -0.270151 -0.923791 -0.270151
v -0.499756 -0.706888 -0.499756
v -0.653151 -0.382511 -0.653151
v -0.853444 -0.382511 -0.353200
v -0.923791 -0.382511 0.000489
v -0.706888 -0.706888 0.000489
v -0.653151 -0.706888 0.270151
v -0.353200 -0.923791 0.146067
v 0.000489 -1.000000 0.000489
v -0.146067 -0.923791 -0.353200
v -0.270151 -0.706888 -0.653151
v -0.353200 -0.382511 -0.853444
v -0.382511 0.000489 -0.923791
v -0.706888 0.000489 -0.706888
v -0.923791 0.000489 -0.382511
v -1.000000 0.000489 0.000489
v -0.923791 0.000489 0.382511
v -0.853444 -0.382511 0.353200
v -0.653151 -0.382511 0.653151
v -0.499756 -0.706888 0.499756
v -0.270151 -0.923791 0.270151
v -0.146067 -0.923791 0.353200
v 0.000489 -0.923791 0.382511
v 0.146067 -0.923791 0.353200
v 0.270151 -0.923791 0.270151
v 0.353200 -0.923791 0.146067
v 0.382511 -0.923791 0.000489
v 0.353200 -0.923791 -0.146067
v 0.270151 -0.923791 -0.270151
v 0.146067 -0.923791 -0.353200
v 0.000489 -0.923791 -0.382511
v 0.000489 -0.706888 -0.706888
v 0.000489 -0.382511 -0.923791
v 0.000489 0.000489 -1.000000
v 0.000489 0.382511 -0.923791
v -0.353200 0.382511 -0.853444
v -0.653151 0.382511 -0.653151
v -0.853444 0.382511 -0.353200
v -0.923791 0.382511 0.000489
v -0.853444 0.382511 0.353200
v -0.653151 0.382511 0.653151
v -0.706888 0.000489 0.706888
v -0.382511 0.000489 0.923791
v -0.353200 -0.382511 0.853444
v -0.270151 -0.706888 0.653151
v 0.000489 -0.706888 0.706888
v 0.270151 -0.706888 0.653151
v 0.499756 -0.706888 0.499756
v 0.653151 -0.706888 0.270151
v 0.706888 -0.706888 0.000489
v 0.653151 -0.706888 -0.270151
v 0.499756 -0.706888 -0.499756
v 0.270151 -0.706888 -0.653151
v 0.353200 -0.382511 -0.853444
v 0.382511 0.000489 -0.923791
v 0.353200 0.382511 -0.853444
v 0.270151 0.706888 -0.653151
v 0.000489 0.706888 -0.706888
v -0.270151 0.706888 -0.653151
v -0.499756 0.706888 -0.499756
v -0.653151 0.706888 -0.270151
v -0.706888 0.706888 0.000489
v -0.653151 0.706888 0.270151
v -0.499756 0.706888 0.499756
v -0.270151 0.706888 0.653151
v -0.353200 0.382511 0.853444
v 0.000489 0.382511 0.923791
v 0.000489 0.000489 1.000000
v 0.000489 -0.382511 0.923791
v 0.353200 -0.382511 0.853444
v 0.653151 -0.382511 0.653151
v 0.853444 -0.382511 0.353200
v 0.923791 -0.382511 0.000489
v 0.853444 -0.382511 -0.353200
v 0.653151 -0.382511 -0.653151
v 0.706888 0.000489 -0.706888
v 0.653151 0.382511 -0.653151
v 0.499756 0.706888 -0.499756
v 0.270151 0.923791 -0.270151
v 0.146067 0.923791 -0.353200
v 0.000489 0.923791 -0.382511
v -0.146067 0.923791 -0.353200
v -0.270151 0.923791 -0.270151
v -0.353200 0.923791 -0.146067
v -0.382511 0.923791 0.000489
v -0.353200 0.923791 0.146067
v -0.270151 0.923791 0.270151
v -0.146067 0.923791 0.353200
v 0.000489 0.923791 0.382511
v 0.000489 0.706888 0.706888
v 0.270151 0.706888 0.653151
v 0.353200 0.382511 0.853444
v 0.382511 0.000489 0.923791
v 0.706888 0.000489 0.706888
v 0.923791 0.000489 0.382511
v 1.000000 0.000489 0.000489
v 0.923791 0.000489 -0.382511
v 0.853444 0.382511 -0.353200
v 0.653151 0.706888 -0.270151
v 0.353200 0.923791 -0.146067
v 0.000489 1.000000 0.000489
v 0.146067 0.923791 0.353200
v 0.270151 0.923791 0.270151
v 0.499756 0.706888 0.499756
v 0.653151 0.382511 0.653151
v 0.853444 0.382511 0.353200
v 0.923791 0.382511 0.000489
v 0.706888 0.706888 0.000489
v 0.382511 0.923791 0.000489
v 0.353200 0.923791 0.146067
v 0.653151 0.706888 0.270151
vn -0.442990 -0.896527 0.000000
vn -0.654762 -0.706115 -0.269608
vn -0.359641 -0.921581 -0.146104
vn -0.311271 -0.897898 -0.311271
vn -0.496790 -0.711618 -0.496790
vn -0.652291 -0.386050 -0.652291
vn -0.852066 -0.388442 -0.350851
vn -0.924891 -0.380233 0.000000
vn -0.701517 -0.712652 0.000000
vn -0.654762 -0.706115 0.269608
vn -0.359641 -0.921581 0.146104
vn -0.000000 -1.000000 0.000000
vn -0.146104 -0.921581 -0.359641
vn -0.269608 -0.706115 -0.654762
vn -0.350851 -0.388442 -0.852066
vn -0.380233 -0.000000 -0.924891
vn -0.701517 0.000000 -0.712652
vn -0.924891 0.000000 -0.380233
vn -1.000000 0.000000 0.000000
vn -0.924891 0.000000 0.380233
vn -0.852066 -0.388442 0.350851
vn -0.652291 -0.386050 0.652291
vn -0.496790 -0.711618 0.496790
vn -0.311271 -0.897898 0.311271
vn -0.146104 -0.921581 0.359641
vn 0.000000 -0.896527 0.442990
vn 0.146104 -0.921581 0.359641
vn 0.311271 -0.897898 0.311271
vn 0.359641 -0.921581 0.146104
vn 0.442990 -0.896527 -0.000000
vn 0.359641 -0.921581 -0.146104
vn 0.311271 -0.897898 -0.311271
vn 0.146104 -0.921581 -0.359641
vn 0.000000 -0.896527 -0.442990
vn 0.000000 -0.712652 -0.701517
vn 0.000000 -0.380233 -0.924891
vn 0.000000 -0.000000 -1.000000
vn 0.000000 0.380233 -0.924891
vn -0.350851 0.388442 -0.852066
vn -0.652291 0.386050 -0.652291
vn -0.852066 0.388442 -0.350851
vn -0.924891 0.380233 0.000000
vn -0.852066 0.388442 0.350851
vn -0.652291 0.386050 0.652291
vn -0.701517 0.000000 0.712652
vn -0.380233 0.000000 0.924891
vn -0.350851 -0.388442 0.852066
vn -0.269608 -0.706115 0.654762
vn 0.000000 -0.712652 0.701517
vn 0.269608 -0.706115 0.654762
vn 0.496790 -0.711618 0.496790
vn 0.654762 -0.706115 0.269608
vn 0.701517 -0.712652 -0.000000
vn 0.654762 -0.706115 -0.269608
vn 0.496790 -0.711618 -0.496790
vn 0.269608 -0.706115 -0.654762
vn 0.350851 -0.388442 -0.852066
vn 0.380233 -0.000000 -0.924891
vn 0.350851 0.388442 -0.852066
vn 0.269608 0.706115 -0.654762
vn 0.000000 0.712652 -0.701517
vn -0.269608 0.706115 -0.654762
vn -0.496790 0.711618 -0.496790
vn -0.654762 0.706115 -0.269608
vn -0.701517 0.712652 0.000000
vn -0.654762 0.706115 0.269608
vn -0.496790 0.711618 0.496790
vn -0.269608 0.706115 0.654762
vn -0.350851 0.388442 0.852066
vn 0.000000 0.380233 0.924891
vn 0.000000 -0.000000 1.000000
vn 0.000000 -0.380233 0.924891
vn 0.350851 -0.388442 0.852066
vn 0.652291 -0.386050 0.652291
vn 0.852066 -0.388442 0.350851
vn 0.924891 -0.380233 -0.000000
vn 0.852066 -0.388442 -0.350851
vn 0.652291 -0.386050 -0.652291
vn 0.712652 -0.000000 -0.701517
vn 0.652291 0.386049 -0.652291
vn 0.496790 0.711618 -0.496790
vn 0.311271 0.897898 -0.311271
vn 0.146104 0.921581 -0.359641
vn 0.000000 0.896527 -0.442990
vn -0.146104 0.921581 -0.359641
vn -0.311271 0.897898 -0.311271
vn -0.359641 0.921581 -0.146104
vn -0.442990 0.896527 0.000000
vn -0.359641 0.921581 0.146104
vn -0.311271 0.897898 0.311271
vn -0.146104 0.921581 0.359641
vn 0.000000 0.896527 0.442990
vn 0.000000 0.712652 0.701517
vn 0.269608 0.706115 0.654762
vn 0.350851 0.388442 0.852066
vn 0.380233 -0.000000 0.924891
vn 0.712652 -0.000000 0.701517
vn 0.924891 -0.000000 0.380233
vn 1.000000 -0.000000 -0.000000
vn 0.924891 -0.000000 -0.380233
vn 0.852066 0.388442 -0.350851
vn 0.654762 0.706115 -0.269608
vn 0.359641 0.921581 -0.146104
vn -0.000000 1.000000 0.000000
vn 0.146104 0.921581 0.359641
vn 0.311271 0.897898 0.311271
vn 0.496790 0.711618 0.496790
vn 0.652291 0.386049 0.652291
vn 0.852066 0.388442 0.350851
vn 0.924891 0.380233 -0.000000
vn 0.701517 0.712652 -0.000000
vn 0.442990 0.896527 -0.000000
vn 0.359641 0.921581 0.146104
vn 0.654762 0.706115 0.269608
f 3//3 1//1 2//2
f 1//1 9//9 2//2
f 7//7 2//2 8//8
f 2//2 9//9 8//8
f 21//21 8//8 10//10
f 8//8 9//9 10//10
f 9//9 1//1 10//10
f 10//10 1//1 11//11
f 11//11 1//1 12//12
f 1//1 3//3 12//12
f 13//13 12//12 4//4
f 12//12 3//3 4//4
f 3//3 2//2 4//4
f 4//4 2//2 5//5
f 5//5 2//2 6//6
f 2//2 7//7 6//6
f 17//17 6//6 18//18
f 6//6 7//7 18//18
f 7//7 8//8 18//18
f 18//18 8//8 19//19
f 19//19 8//8 20//20
f 8//8 21//21 20//20
f 45//45 20//20 22//22
f 20//20 21//21 22//22
f 21//21 10//10 22//22
f 22//22 10//10 23//23
f 23//23 10//10 24//24
f 10//10 11//11 24//24
f 11//11 12//12 24//24
f 24//24 12//12 25//25
f 25//25 12//12 26//26
f 26//26 12//12 27//27
f 27//27 12//12 28//28
f 28//28 12//12 29//29
f 29//29 12//12 30//30
f 30//30 12//12 31//31
f 31//31 12//12 32//32
f 32//32 12//12 33//33
f 33//33 12//12 34//34
f 12//12 13//13 34//34
f 35//35 34//34 14//14
f 34//34 13//13 14//14
f 13//13 4//4 14//14
f 4//4 5//5 14//14
f 5//5 6//6 14//14
f 14//14 6//6 15//15
f 15//15 6//6 16//16
f 6//6 17//17 16//16
f 39//39 16//16 40//40
f 16//16 17//17 40//40
f 17//17 18//18 40//40
f 40//40 18//18 41//41
f 41//41 18//18 42//42
f 18//18 19//19 42//42
f 19//19 20//20 42//42
f 42//42 20//20 43//43
f 43//43 20//20 44//44
f 20//20 45//45 44//44
f 69//69 44//44 46//46
f 44//44 45//45 46//46
f 45//45 22//22 46//46
f 46//46 22//22 47//47
f 47//47 22//22 48//48
f 22//22 23//23 48//48
f 23//23 24//24 48//48
f 24//24 25//25 48//48
f 25//25 26//26 48//48
f 48//48 26//26 49//49
f 49//49 26//26 50//50
f 26//26 27//27 50//50
f 27//27 28//28 50//50
f 50//50 28//28 51//51
f 51//51 28//28 52//52
f 28//28 29//29 52//52
f 29//29 30//30 52//52
f 52//52 30//30 53//53
f 53//53 30//30 54//54
f 30//30 31//31 54//54
f 31//31 32//32 54//54
f 54//54 32//32 55//55
f 55//55 32//32 56//56
f 32//32 33//33 56//56
f 33//33 34//34 56//56
f 34//34 35//35 56//56
f 57//57 56//56 36//36
f 56//56 35//35 36//36
f 35//35 14//14 36//36
f 14//14 15//15 36//36
f 15//15 16//16 36//36
f 36//36 16//16 37//37
f 37//37 16//16 38//38
f 16//16 39//39 38//38
f 61//61 38//38 62//62
f 38//38 39//39 62//62
f 39//39 40//40 62//62
f 62//62 40//40 63//63
f 63//63 40//40 64//64
f 40//40 41//41 64//64
f 41//41 42//42 64//64
f 64//64 42//42 65//65
f 65//65 42//42 66//66
f 42//42 43//43 66//66
f 43//43 44//44 66//66
f 66//66 44//44 67//67
f 67//67 44//44 68//68
f 44//44 69//69 68//68
f 93//93 68//68 70//70
f 68//68 69//69 70//70
f 69//69 46//46 70//70
f 70//70 46//46 71//71
f 71//71 46//46 72//72
f 46//46 47//47 72//72
f 47//47 48//48 72//72
f 48//48 49//49 72//72
f 49//49 50//50 72//72
f 72//72 50//50 73//73
f 73//73 50//50 74//74
f 50//50 51//51 74//74
f 51//51 52//52 74//74
f 74//74 52//52 75//75
f 75//75 52//52 76//76
f 52//52 53//53 76//76
f 53//53 54//54 76//76
f 76//76 54//54 77//77
f 77//77 54//54 78//78
f 54//54 55//55 78//78
f 55//55 56//56 78//78
f 56//56 57//57 78//78
f 79//79 78//78 58//58
f 78//78 57//57 58//58
f 57//57 36//36 58//58
f 36//36 37//37 58//58
f 37//37 38//38 58//58
f 58//58 38//38 59//59
f 59//59 38//38 60//60
f 38//38 61//61 60//60
f 83//83 60//60 84//84
f 60//60 61//61 84//84
f 61//61 62//62 84//84
f 84//84 62//62 85//85
f 85//85 62//62 86//86
f 62//62 63//63 86//86
f 63//63 64//64 86//86
f 86//86 64//64 87//87
f 87//87 64//64 88//88
f 64//64 65//65 88//88
f 65//65 66//66 88//88
f 88//88 66//66 89//89
f 89//89 66//66 90//90
f 66//66 67//67 90//90
f 67//67 68//68 90//90
f 90//90 68//68 91//91
f 91//91 68//68 92//92
f 68//68 93//93 92//92
f 105//105 92//92 94//94
f 92//92 93//93 94//94
f 93//93 70//70 94//94
f 94//94 70//70 95//95
f 95//95 70//70 96//96
f 70//70 71//71 96//96
f 71//71 72//72 96//96
f 72//72 73//73 96//96
f 73//73 74//74 96//96
f 96//96 74//74 97//97
f 97//97 74//74 98//98
f 74//74 75//75 98//98
f 75//75 76//76 98//98
f 98//98 76//76 99//99
f 99//99 76//76 100//100
f 76//76 77//77 100//100
f 77//77 78//78 100//100
f 78//78 79//79 100//100
f 101//101 100//100 80//80
f 100//100 79//79 80//80
f 79//79 58//58 80//80
f 58//58 59//59 80//80
f 59//59 60//60 80//80
f 80//80 60//60 81//81
f 81//81 60//60 82//82
f 60//60 83//83 82//82
f 103//103 82//82 104//104
f 82//82 83//83 104//104
f 83//83 84//84 104//104
f 84//84 85//85 104//104
f 85//85 86//86 104//104
f 86//86 87//87 104//104
f 87//87 88//88 104//104
f 88//88 89//89 104//104
f 89//89 90//90 104//104
f 90//90 91//91 104//104
f 91//91 92//92 104//104
f 92//92 105//105 104//104
f 113//113 104//104 106//106
f 104//104 105//105 106//106
f 105//105 94//94 106//106
f 106//106 94//94 107//107
f 107//107 94//94 108//108
f 94//94 95//95 108//108
f 95//95 96//96 108//108
f 96//96 97//97 108//108
f 97//97 98//98 108//108
f 108//108 98//98 109//109
f 109//109 98//98 110//110
f 98//98 99//99 110//110
f 99//99 100//100 110//110
f 100//100 101//101 110//110
f 110//110 101//101 102//102
f 101//101 80//80 102//102
f 80//80 81//81 102//102
f 81//81 82//82 102//102
f 82//82 103//103 102//102
f 102//102 103//103 112//112
f 103//103 104//104 112//112
f 104//104 113//113 112//112
f 112//112 113//113 114//114
f 113//113 106//106 114//114
f 106//106 107//107 114//114
f 107//107 108//108 114//114
f 108//108 109//109 114//114
f 109//109 110//110 114//114
f 114//114 110//110 111//111
f 110//110 102//102 111//111
f 102//102 112//112 111//111
f 114//114 111//111 112//112
